<svg xmlns="http://www.w3.org/2000/svg" xmlns:xlink="http://www.w3.org/1999/xlink" width="500" zoomAndPan="magnify" viewBox="0 0 375 374.999991" height="500" preserveAspectRatio="xMidYMid meet" version="1.0"><defs><g/><clipPath id="6c83944068"><path d="M 56 107 L 143 107 L 143 259 L 56 259 Z M 56 107 " clip-rule="nonzero"/></clipPath><clipPath id="48e0821e11"><path d="M 58.605469 103.277344 L 154.078125 113.316406 L 138.632812 260.253906 L 43.160156 250.21875 Z M 58.605469 103.277344 " clip-rule="nonzero"/></clipPath><clipPath id="e46a666eeb"><path d="M 58.605469 103.277344 L 154.078125 113.316406 L 138.632812 260.253906 L 43.160156 250.21875 Z M 58.605469 103.277344 " clip-rule="nonzero"/></clipPath><clipPath id="1e3060e47f"><path d="M 263 103.277344 L 324 103.277344 L 324 178 L 263 178 Z M 263 103.277344 " clip-rule="nonzero"/></clipPath><clipPath id="54f1e4c693"><path d="M 324 103.277344 L 337 103.277344 L 337 124 L 324 124 Z M 324 103.277344 " clip-rule="nonzero"/></clipPath></defs><rect x="-37.5" width="450" fill="#ffffff" y="-37.499999" height="449.999989" fill-opacity="1"/><rect x="-37.5" width="450" fill="#4a90e2" y="-37.499999" height="449.999989" fill-opacity="1"/><g clip-path="url(#6c83944068)"><g clip-path="url(#48e0821e11)"><g clip-path="url(#e46a666eeb)"><path fill="#fff1bb" d="M 115.898438 201.785156 L 122.867188 220.832031 L 142.515625 225.886719 L 126.625 238.417969 L 127.851562 258.730469 L 111.078125 247.625 L 92.363281 255 L 97.789062 235.390625 L 84.847656 219.828125 L 105.121094 218.96875 Z M 91.332031 122.585938 L 115.695312 139.722656 L 117.113281 136.882812 L 89.851562 108.230469 Z M 119.390625 133.011719 L 107.226562 110.054688 L 91.078125 107.238281 L 117.640625 135.441406 Z M 71.671875 170.976562 L 102.644531 167.878906 L 103.363281 164.589844 L 59.859375 158.894531 Z M 73.769531 151.015625 L 60.421875 157.085938 L 103.886719 163.148438 L 104.609375 159.863281 Z M 56.878906 119.710938 L 63.4375 139.089844 L 107.371094 154.917969 L 109.0625 149.492188 L 108.613281 150.191406 Z M 110.753906 144.0625 L 76.605469 116.925781 L 58.140625 118.351562 L 109.507812 148.789062 Z M 110.753906 144.0625 " fill-opacity="1" fill-rule="nonzero"/></g></g></g><g clip-path="url(#1e3060e47f)"><path fill="#231815" d="M 320.1875 122.808594 C 319.640625 122.605469 319.0625 122.503906 318.46875 122.503906 C 317.925781 122.503906 317.386719 122.589844 316.863281 122.75 L 318.042969 119.570312 C 319.558594 115.464844 318.242188 111.328125 315.042969 110.15625 C 314.5 109.953125 313.921875 109.851562 313.332031 109.851562 C 312.359375 109.851562 311.398438 110.128906 310.507812 110.621094 C 310.59375 109.269531 310.386719 107.964844 309.867188 106.839844 C 309.242188 105.480469 308.191406 104.472656 306.90625 104 C 306.359375 103.796875 305.785156 103.695312 305.195312 103.695312 C 302.40625 103.695312 299.714844 105.917969 298.496094 109.21875 L 298.027344 110.484375 C 298.015625 110.421875 298.007812 110.359375 297.996094 110.296875 C 297.558594 108.210938 296.347656 106.660156 294.671875 106.046875 C 294.15625 105.855469 293.609375 105.757812 293.042969 105.757812 C 290.199219 105.757812 287.382812 108.199219 286.035156 111.828125 L 277.015625 136.164062 L 276.679688 134.308594 C 276.675781 134.285156 276.671875 134.261719 276.667969 134.242188 C 275.765625 130.007812 272.769531 126.933594 269.546875 126.933594 C 269.199219 126.933594 268.851562 126.972656 268.519531 127.039062 C 267.121094 127.324219 265.925781 128.175781 265.058594 129.496094 C 263.796875 131.417969 263.386719 134.183594 263.953125 136.859375 L 267.792969 156.84375 C 267.800781 156.875 267.8125 156.910156 267.820312 156.941406 C 267.925781 158.035156 269.585938 171.46875 286.796875 176.652344 C 286.824219 176.664062 286.855469 176.671875 286.882812 176.675781 C 286.964844 176.699219 288.859375 177.171875 291.59375 177.171875 C 296.664062 177.171875 305.382812 175.542969 310.539062 165.441406 C 311 164.777344 311.390625 164.027344 311.691406 163.210938 L 323.183594 132.222656 C 324.699219 128.117188 323.382812 123.980469 320.1875 122.808594 Z M 320.1875 122.808594 " fill-opacity="1" fill-rule="nonzero"/></g><path fill="#ffffff" d="M 319.449219 124.804688 C 317.40625 124.050781 314.859375 125.832031 313.777344 128.761719 L 307.667969 145.238281 L 306.417969 144.777344 L 316.039062 118.835938 C 317.121094 115.90625 316.34375 112.898438 314.304688 112.152344 C 312.273438 111.40625 309.71875 113.179688 308.636719 116.109375 L 299.015625 142.050781 L 297.257812 141.40625 L 307.902344 112.683594 C 308.996094 109.753906 308.207031 106.75 306.164062 105.996094 C 304.136719 105.25 301.582031 107.023438 300.5 109.957031 L 289.851562 138.679688 L 287.148438 137.683594 L 295.449219 115.296875 C 296.652344 112.050781 295.96875 108.789062 293.929688 108.042969 C 291.902344 107.292969 289.242188 109.320312 288.039062 112.566406 L 276.292969 144.246094 L 274.578125 134.683594 C 273.820312 131.136719 271.304688 128.632812 268.949219 129.125 C 266.609375 129.605469 265.300781 132.921875 266.050781 136.457031 L 269.890625 156.441406 C 269.902344 156.5 269.925781 156.5625 269.9375 156.621094 C 269.941406 156.648438 269.941406 156.675781 269.941406 156.703125 C 269.941406 156.703125 271.035156 169.679688 287.414062 174.617188 C 287.414062 174.617188 301.703125 178.257812 308.71875 164.308594 C 309.101562 163.769531 309.4375 163.15625 309.6875 162.472656 L 321.179688 131.492188 C 322.261719 128.554688 321.488281 125.550781 319.449219 124.804688 Z M 319.449219 124.804688 " fill-opacity="1" fill-rule="nonzero"/><path fill="#231815" d="M 286.792969 144.085938 C 286.636719 144.085938 286.476562 144.058594 286.316406 144 C 285.605469 143.738281 285.242188 142.949219 285.507812 142.242188 L 296.394531 112.875 C 296.65625 112.164062 297.449219 111.804688 298.160156 112.0625 C 298.871094 112.324219 299.234375 113.113281 298.972656 113.824219 L 288.082031 143.191406 C 287.878906 143.742188 287.351562 144.085938 286.792969 144.085938 Z M 286.792969 144.085938 " fill-opacity="1" fill-rule="nonzero"/><path fill="#231815" d="M 296.351562 147.605469 C 296.191406 147.605469 296.035156 147.578125 295.875 147.519531 C 295.164062 147.257812 294.800781 146.46875 295.0625 145.761719 L 308.132812 110.507812 C 308.394531 109.800781 309.1875 109.4375 309.894531 109.699219 C 310.609375 109.960938 310.972656 110.75 310.707031 111.457031 L 297.640625 146.710938 C 297.4375 147.261719 296.910156 147.605469 296.351562 147.605469 Z M 296.351562 147.605469 " fill-opacity="1" fill-rule="nonzero"/><path fill="#231815" d="M 305.980469 151.144531 C 305.824219 151.144531 305.664062 151.117188 305.507812 151.058594 C 304.792969 150.796875 304.433594 150.011719 304.695312 149.300781 L 314.457031 122.964844 C 314.71875 122.253906 315.511719 121.894531 316.21875 122.15625 C 316.929688 122.417969 317.292969 123.203125 317.03125 123.914062 L 307.269531 150.25 C 307.066406 150.804688 306.539062 151.144531 305.980469 151.144531 Z M 305.980469 151.144531 " fill-opacity="1" fill-rule="nonzero"/><path fill="#231815" d="M 285.28125 159.40625 C 285.261719 159.40625 285.242188 159.40625 285.222656 159.40625 C 284.589844 159.375 284.105469 158.839844 284.136719 158.210938 C 284.554688 149.980469 275.851562 145.300781 275.761719 145.253906 C 275.355469 145.042969 275.117188 144.605469 275.15625 144.148438 L 275.609375 139.058594 C 275.664062 138.429688 276.226562 137.96875 276.847656 138.023438 C 277.480469 138.078125 277.945312 138.632812 277.886719 139.257812 L 277.5 143.625 C 279.761719 145.007812 286.84375 150.019531 286.421875 158.324219 C 286.390625 158.933594 285.886719 159.40625 285.28125 159.40625 Z M 285.28125 159.40625 " fill-opacity="1" fill-rule="nonzero"/><g clip-path="url(#54f1e4c693)"><path fill="#231815" d="M 334.992188 123.316406 C 334.953125 123.316406 334.914062 123.3125 334.871094 123.308594 C 334.285156 123.242188 333.863281 122.714844 333.929688 122.128906 C 335.4375 108.875 325.542969 105.597656 325.121094 105.464844 C 324.5625 105.289062 324.246094 104.691406 324.425781 104.128906 C 324.601562 103.570312 325.195312 103.257812 325.757812 103.433594 C 325.878906 103.46875 337.761719 107.320312 336.054688 122.371094 C 335.992188 122.914062 335.53125 123.316406 334.992188 123.316406 Z M 334.992188 123.316406 " fill-opacity="1" fill-rule="nonzero"/></g><path fill="#231815" d="M 330.292969 120.84375 C 330.269531 120.84375 330.246094 120.84375 330.222656 120.84375 C 329.632812 120.800781 329.1875 120.292969 329.226562 119.707031 C 329.5625 114.773438 325.292969 113.3125 325.113281 113.253906 C 324.554688 113.070312 324.246094 112.46875 324.429688 111.910156 C 324.609375 111.355469 325.203125 111.046875 325.765625 111.226562 C 327.859375 111.894531 331.71875 114.554688 331.359375 119.851562 C 331.320312 120.414062 330.851562 120.84375 330.292969 120.84375 Z M 330.292969 120.84375 " fill-opacity="1" fill-rule="nonzero"/><path fill="#231815" d="M 258.910156 169.800781 C 258.707031 169.800781 258.503906 169.746094 258.320312 169.625 C 258.21875 169.558594 247.890625 162.546875 253.75 148.574219 C 253.980469 148.035156 254.605469 147.777344 255.148438 148.003906 C 255.691406 148.230469 255.949219 148.855469 255.722656 149.394531 C 250.535156 161.761719 259.410156 167.792969 259.5 167.851562 C 259.992188 168.175781 260.125 168.835938 259.800781 169.324219 C 259.597656 169.632812 259.257812 169.800781 258.910156 169.800781 Z M 258.910156 169.800781 " fill-opacity="1" fill-rule="nonzero"/><path fill="#231815" d="M 261.09375 162.324219 C 260.886719 162.324219 260.679688 162.265625 260.496094 162.140625 C 258.679688 160.917969 255.722656 157.289062 257.550781 152.296875 C 257.75 151.746094 258.367188 151.460938 258.917969 151.664062 C 259.472656 151.863281 259.757812 152.476562 259.554688 153.027344 C 257.855469 157.675781 261.539062 160.273438 261.695312 160.378906 C 262.179688 160.710938 262.308594 161.375 261.976562 161.855469 C 261.769531 162.160156 261.433594 162.324219 261.09375 162.324219 Z M 261.09375 162.324219 " fill-opacity="1" fill-rule="nonzero"/><g fill="#ffffff" fill-opacity="1"><g transform="translate(121.119541, 208.499986)"><g><path d="M 30.65625 -38.78125 C 30.800781 -38.976562 30.894531 -38.953125 30.9375 -38.703125 C 30.9375 -37.460938 30.863281 -36.179688 30.71875 -34.859375 C 30.582031 -33.535156 30.25 -32.296875 29.71875 -31.140625 C 29.1875 -29.992188 28.378906 -29.085938 27.296875 -28.421875 C 26.222656 -27.753906 24.726562 -27.441406 22.8125 -27.484375 C 21.5625 -27.484375 20.226562 -27.554688 18.8125 -27.703125 C 17.394531 -27.847656 16.0625 -27.929688 14.8125 -27.953125 C 13.570312 -27.972656 12.59375 -27.84375 11.875 -27.5625 L 11.796875 -26.625 C 11.554688 -23.457031 11.28125 -20.335938 10.96875 -17.265625 C 10.65625 -14.191406 10.644531 -11.320312 10.9375 -8.65625 C 11.226562 -6 12.140625 -3.710938 13.671875 -1.796875 C 13.816406 -1.648438 13.789062 -1.53125 13.59375 -1.4375 C 13.019531 -1.101562 12.21875 -0.78125 11.1875 -0.46875 C 10.15625 -0.15625 8.847656 0 7.265625 0 C 5.972656 0 4.703125 -0.296875 3.453125 -0.890625 C 2.203125 -1.492188 1.171875 -2.453125 0.359375 -3.765625 C -0.453125 -5.085938 -0.859375 -6.804688 -0.859375 -8.921875 C -0.859375 -10.078125 -0.820312 -11.707031 -0.75 -13.8125 C -0.675781 -15.925781 -0.578125 -18.265625 -0.453125 -20.828125 C -0.335938 -23.398438 -0.234375 -25.976562 -0.140625 -28.5625 C -0.046875 -31.15625 0.046875 -33.519531 0.140625 -35.65625 C 0.234375 -37.789062 0.28125 -39.457031 0.28125 -40.65625 C 0.28125 -43.820312 0.207031 -46.363281 0.0625 -48.28125 C -0.0703125 -50.195312 -0.28125 -51.71875 -0.5625 -52.84375 C -0.851562 -53.976562 -1.203125 -54.90625 -1.609375 -55.625 C -2.023438 -56.34375 -2.492188 -57.082031 -3.015625 -57.84375 C -3.117188 -57.988281 -3.070312 -58.109375 -2.875 -58.203125 C -1.25 -59.597656 0.316406 -60.472656 1.828125 -60.828125 C 3.335938 -61.191406 5.003906 -61.265625 6.828125 -61.046875 C 8.648438 -60.835938 10.859375 -60.539062 13.453125 -60.15625 C 17.773438 -59.53125 21.492188 -59.359375 24.609375 -59.640625 C 27.722656 -59.929688 30.117188 -60.316406 31.796875 -60.796875 C 33.484375 -61.273438 34.328125 -61.515625 34.328125 -61.515625 C 34.515625 -61.710938 34.609375 -61.691406 34.609375 -61.453125 C 34.609375 -60.253906 34.523438 -58.96875 34.359375 -57.59375 C 34.191406 -56.226562 33.832031 -54.945312 33.28125 -53.75 C 32.726562 -52.550781 31.882812 -51.566406 30.75 -50.796875 C 29.625 -50.023438 28.128906 -49.640625 26.265625 -49.640625 C 23.671875 -49.640625 20.992188 -49.914062 18.234375 -50.46875 C 15.484375 -51.019531 12.976562 -51.414062 10.71875 -51.65625 C 11.195312 -50.3125 11.578125 -48.753906 11.859375 -46.984375 C 12.148438 -45.210938 12.34375 -43.398438 12.4375 -41.546875 C 12.539062 -39.703125 12.492188 -38.035156 12.296875 -36.546875 C 13.742188 -36.890625 15.234375 -37.035156 16.765625 -36.984375 C 18.296875 -36.929688 19.84375 -36.859375 21.40625 -36.765625 C 22.96875 -36.671875 24.523438 -36.753906 26.078125 -37.015625 C 27.640625 -37.285156 29.164062 -37.875 30.65625 -38.78125 Z M 30.65625 -38.78125 "/></g></g></g><g fill="#ffffff" fill-opacity="1"><g transform="translate(156.226992, 208.499986)"><g><path d="M 39.578125 -11.375 C 42.878906 -11.375 45.96875 -11.78125 48.84375 -12.59375 C 51.726562 -13.40625 54.054688 -14.625 55.828125 -16.25 C 57.609375 -17.882812 58.5 -19.90625 58.5 -22.3125 C 58.5 -24.082031 58.078125 -25.398438 57.234375 -26.265625 C 56.398438 -27.128906 55.257812 -27.691406 53.8125 -27.953125 C 52.375 -28.210938 50.753906 -28.269531 48.953125 -28.125 C 47.160156 -27.988281 45.335938 -27.765625 43.484375 -27.453125 C 41.640625 -27.140625 39.859375 -26.835938 38.140625 -26.546875 C 29.648438 -25.347656 22.65625 -25.179688 17.15625 -26.046875 C 11.664062 -26.910156 7.585938 -28.625 4.921875 -31.1875 C 2.265625 -33.757812 0.9375 -36.9375 0.9375 -40.71875 C 0.9375 -43.40625 1.535156 -45.957031 2.734375 -48.375 C 3.929688 -50.800781 5.773438 -52.984375 8.265625 -54.921875 C 10.765625 -56.867188 13.941406 -58.394531 17.796875 -59.5 C 21.660156 -60.601562 26.28125 -61.15625 31.65625 -61.15625 C 33.863281 -61.15625 36.453125 -60.972656 39.421875 -60.609375 C 42.398438 -60.253906 45.519531 -59.875 48.78125 -59.46875 C 52.039062 -59.0625 55.191406 -58.773438 58.234375 -58.609375 C 61.285156 -58.441406 64 -58.515625 66.375 -58.828125 C 68.75 -59.140625 70.535156 -59.867188 71.734375 -61.015625 C 71.828125 -61.066406 71.910156 -61.066406 71.984375 -61.015625 C 72.054688 -60.960938 72.09375 -60.914062 72.09375 -60.875 C 72.144531 -60.394531 72.179688 -59.578125 72.203125 -58.421875 C 72.222656 -57.273438 72.101562 -55.976562 71.84375 -54.53125 C 71.582031 -53.09375 71.066406 -51.691406 70.296875 -50.328125 C 69.523438 -48.960938 68.382812 -47.835938 66.875 -46.953125 C 65.363281 -46.066406 63.363281 -45.625 60.875 -45.625 C 59.4375 -45.625 57.648438 -45.863281 55.515625 -46.34375 C 53.378906 -46.820312 50.941406 -47.367188 48.203125 -47.984375 C 45.472656 -48.609375 42.453125 -49.160156 39.140625 -49.640625 C 35.828125 -50.117188 32.253906 -50.359375 28.421875 -50.359375 C 26.691406 -50.359375 24.878906 -50.226562 22.984375 -49.96875 C 21.085938 -49.707031 19.320312 -49.285156 17.6875 -48.703125 C 16.0625 -48.128906 14.722656 -47.351562 13.671875 -46.375 C 12.617188 -45.394531 12.09375 -44.207031 12.09375 -42.8125 C 12.09375 -40.9375 13.097656 -39.53125 15.109375 -38.59375 C 17.117188 -37.664062 19.828125 -37.128906 23.234375 -36.984375 C 26.640625 -36.835938 30.457031 -37.078125 34.6875 -37.703125 C 42.457031 -38.804688 48.976562 -39.164062 54.25 -38.78125 C 59.53125 -38.394531 63.507812 -37.003906 66.1875 -34.609375 C 68.875 -32.210938 70.21875 -28.566406 70.21875 -23.671875 C 70.21875 -18.921875 68.921875 -14.769531 66.328125 -11.21875 C 63.742188 -7.675781 60.003906 -4.921875 55.109375 -2.953125 C 50.222656 -0.984375 44.300781 0 37.34375 0 C 33.457031 0 29.691406 -0.285156 26.046875 -0.859375 C 22.398438 -1.441406 18.894531 -1.972656 15.53125 -2.453125 C 12.175781 -2.929688 8.960938 -3.0625 5.890625 -2.84375 C 2.828125 -2.625 -0.046875 -1.722656 -2.734375 -0.140625 C -2.921875 -0.046875 -3.015625 -0.117188 -3.015625 -0.359375 C -3.066406 -0.691406 -2.984375 -1.394531 -2.765625 -2.46875 C -2.554688 -3.550781 -2.160156 -4.765625 -1.578125 -6.109375 C -1.003906 -7.453125 -0.191406 -8.769531 0.859375 -10.0625 C 1.921875 -11.363281 3.289062 -12.429688 4.96875 -13.265625 C 6.644531 -14.109375 8.707031 -14.53125 11.15625 -14.53125 C 13.5 -14.53125 15.738281 -14.375 17.875 -14.0625 C 20.007812 -13.75 22.179688 -13.375 24.390625 -12.9375 C 26.597656 -12.507812 28.9375 -12.140625 31.40625 -11.828125 C 33.875 -11.523438 36.597656 -11.375 39.578125 -11.375 Z M 39.578125 -11.375 "/></g></g></g><g fill="#ffffff" fill-opacity="1"><g transform="translate(231.046147, 208.499986)"><g><path d="M -2.953125 -1 C -2.035156 -2.726562 -1.347656 -4.503906 -0.890625 -6.328125 C -0.441406 -8.148438 -0.117188 -10.070312 0.078125 -12.09375 C 0.078125 -12.132812 0.078125 -12.203125 0.078125 -12.296875 C 0.117188 -14.554688 0.25 -17.085938 0.46875 -19.890625 C 0.6875 -22.703125 0.890625 -25.988281 1.078125 -29.75 C 1.265625 -33.519531 1.359375 -37.96875 1.359375 -43.09375 C 1.359375 -46.695312 1.191406 -49.503906 0.859375 -51.515625 C 0.523438 -53.535156 0.046875 -55.15625 -0.578125 -56.375 C -1.203125 -57.59375 -1.992188 -58.804688 -2.953125 -60.015625 C -3.097656 -60.148438 -3.070312 -60.269531 -2.875 -60.375 C -0.144531 -61.28125 2.222656 -61.632812 4.234375 -61.4375 C 6.253906 -61.25 7.890625 -60.695312 9.140625 -59.78125 C 10.390625 -58.875 11.273438 -57.847656 11.796875 -56.703125 C 12.472656 -55.210938 12.941406 -53.21875 13.203125 -50.71875 C 13.460938 -48.226562 13.566406 -45.472656 13.515625 -42.453125 C 13.472656 -39.429688 13.304688 -36.320312 13.015625 -33.125 C 12.734375 -29.9375 12.375 -26.832031 11.9375 -23.8125 C 11.507812 -20.789062 11.066406 -18.054688 10.609375 -15.609375 C 10.148438 -13.160156 9.707031 -11.195312 9.28125 -9.71875 C 11.050781 -10.238281 13.078125 -10.398438 15.359375 -10.203125 C 17.640625 -10.015625 19.882812 -9.921875 22.09375 -9.921875 C 24.875 -9.921875 27.113281 -10.148438 28.8125 -10.609375 C 30.519531 -11.066406 31.828125 -11.609375 32.734375 -12.234375 C 33.648438 -12.859375 34.300781 -13.410156 34.6875 -13.890625 C 34.875 -14.078125 34.992188 -14.050781 35.046875 -13.8125 C 35.523438 -9.925781 35.175781 -6.941406 34 -4.859375 C 32.820312 -2.773438 30.503906 -1.421875 27.046875 -0.796875 C 24.609375 -0.316406 22.222656 -0.109375 19.890625 -0.171875 C 17.566406 -0.242188 15.191406 -0.398438 12.765625 -0.640625 C 10.347656 -0.878906 7.851562 -1.070312 5.28125 -1.21875 C 2.71875 -1.363281 -0.0234375 -1.289062 -2.953125 -1 Z M -2.953125 -1 "/></g></g></g></svg>